<svg width="10" height="12" viewBox="0 0 10 12" fill="none" xmlns="http://www.w3.org/2000/svg">
<path d="M2.64464 0.0609613C2.97638 -0.0335014 3.33236 -0.017808 3.65334 0.105429C3.97431 0.228666 4.24091 0.452013 4.40876 0.738288L4.46562 0.84497L4.96673 1.89819C5.11904 2.21787 5.16848 2.57278 5.1089 2.91879C5.04932 3.2648 4.88336 3.58663 4.63164 3.84425L4.53157 3.93876L3.74011 4.63542C3.59759 4.76287 3.70448 5.25619 4.22075 6.09962C4.68395 6.85857 5.06225 7.21299 5.24723 7.23232H5.27983L5.32 7.22516L6.87412 6.77623C7.08299 6.71573 7.30589 6.71334 7.51616 6.76934C7.72643 6.82533 7.91517 6.93735 8.0598 7.09198L8.12955 7.17432L9.15754 8.52038C9.35926 8.78414 9.45986 9.10491 9.44277 9.42988C9.42569 9.75485 9.29193 10.0646 9.06354 10.3082L8.97105 10.3984L8.5594 10.7664C8.19042 11.0965 7.72887 11.3195 7.2296 11.4089C6.73034 11.4984 6.21436 11.4506 5.74303 11.2712C4.27609 10.7127 2.94334 9.43685 1.73264 7.45642C0.51967 5.47098 0.0155293 3.74043 0.240687 2.25833C0.308887 1.81024 0.504339 1.38795 0.806278 1.03635C1.10822 0.684749 1.50536 0.416961 1.95553 0.261439L2.10184 0.215615L2.64464 0.0609613Z" fill="#C6C6C6"/>
</svg>
