<svg width="19" height="18" viewBox="0 0 19 18" fill="none" xmlns="http://www.w3.org/2000/svg">
<path d="M9.60609 7.302V10.753H14.3981C13.9521 12.946 12.0851 14.206 9.60609 14.206C8.21847 14.1869 6.89414 13.6223 5.91963 12.6342C4.94511 11.6462 4.39875 10.3143 4.39875 8.9265C4.39875 7.53874 4.94511 6.20677 5.91963 5.21875C6.89414 4.23073 8.21847 3.66609 9.60609 3.647C10.8063 3.64556 11.9696 4.06207 12.8961 4.825L15.4961 2.225C14.4113 1.27077 13.1112 0.593977 11.7074 0.252709C10.3035 -0.0885598 8.8378 -0.084118 7.43603 0.265653C6.03426 0.615424 4.73829 1.30008 3.65932 2.26087C2.58035 3.22166 1.7506 4.42989 1.24128 5.78188C0.731962 7.13387 0.558276 8.58925 0.735129 10.0231C0.911982 11.457 1.43409 12.8266 2.25666 14.0143C3.07922 15.202 4.17768 16.1724 5.45777 16.8422C6.73785 17.5121 8.16135 17.8613 9.60609 17.86C14.0731 17.86 18.1351 14.611 18.1351 8.926C18.1282 8.37864 18.0611 7.8337 17.9351 7.301L9.60609 7.302Z" fill="#1D1B19"/>
</svg>
