<svg width="11" height="8" viewBox="0 0 11 8" fill="none" xmlns="http://www.w3.org/2000/svg">
<path d="M10.4543 0.451416L5.76579 5.12065C5.64513 5.2406 5.48189 5.30793 5.31175 5.30793C5.14161 5.30793 4.97838 5.2406 4.85771 5.12065L0.211018 0.486838C0.196733 0.539339 0.189159 0.59344 0.188477 0.647846V7.08817C0.188477 7.25897 0.25633 7.42279 0.377109 7.54356C0.497889 7.66434 0.661701 7.7322 0.832509 7.7322H9.84896C10.0198 7.7322 10.1836 7.66434 10.3044 7.54356C10.4251 7.42279 10.493 7.25897 10.493 7.08817V0.647846C10.4904 0.580755 10.4774 0.514478 10.4543 0.451416ZM1.27367 7.08817H0.826068V6.62768L3.16712 4.30595L3.62117 4.75999L1.27367 7.08817ZM9.84252 7.08817H9.39169L7.0442 4.75999L7.49824 4.30595L9.8393 6.62768L9.84252 7.08817Z" fill="#C6C6C6"/>
</svg>
