<svg width="25" height="20" viewBox="0 0 25 20" fill="none" xmlns="http://www.w3.org/2000/svg">
<path d="M24.668 2.37575C23.7854 2.76628 22.8249 3.04735 21.8356 3.15682C22.8627 2.53089 23.6319 1.54202 23.9988 0.375752C23.035 0.963885 21.9791 1.37629 20.878 1.59469C20.4178 1.09003 19.8613 0.687999 19.243 0.413643C18.6247 0.139287 17.9579 -0.00151415 17.2842 1.22793e-05C14.5586 1.22793e-05 12.3666 2.26628 12.3666 5.04735C12.3666 5.43788 12.4127 5.82841 12.4877 6.20415C8.40646 5.98522 4.76651 3.98522 2.34661 0.923089C1.90568 1.69562 1.67462 2.57524 1.67746 3.47042C1.67746 5.2219 2.54563 6.76628 3.86951 7.67456C3.08932 7.64305 2.32741 7.42308 1.64574 7.03255V7.09468C1.64574 9.54734 3.33592 11.5799 5.58853 12.0473C5.16558 12.16 4.73048 12.2177 4.29349 12.2189C3.97334 12.2189 3.67049 12.1864 3.36476 12.142C3.98776 14.142 5.80197 15.5947 7.96228 15.642C6.2721 17 4.15505 17.7988 1.85629 17.7988C1.44384 17.7988 1.06311 17.784 0.667969 17.7367C2.84848 19.1716 5.43566 20 8.22187 20C17.2669 20 22.2163 12.3136 22.2163 5.64202C22.2163 5.42309 22.2163 5.20415 22.2019 4.98522C23.1595 4.26628 23.9988 3.37575 24.668 2.37575Z" fill="#1D1B19"/>
</svg>
